<?xml version="1.0" encoding="iso-8859-1"?>
<!-- Generator: Adobe Illustrator 19.0.0, SVG Export Plug-In . SVG Version: 6.00 Build 0)  -->
<svg version="1.1" id="Layer_1" xmlns="http://www.w3.org/2000/svg" xmlns:xlink="http://www.w3.org/1999/xlink" x="0px" y="0px"
	 viewBox="0 0 512.004 512.004" style="enable-background:new 0 0 512.004 512.004;" xml:space="preserve">
<path style="fill:#E64C3C;" d="M365.452,308.98c-35.723,0.724-70.246-12.958-95.774-37.957c-22.209-21.6-52.177-33.375-83.152-32.66
	c-26.075-0.344-51.559,7.839-72.559,23.304c-2.675,2.092-5.958,3.24-9.357,3.266c-4.546-0.035-8.854-2.03-11.828-5.473
	c-2.957-3.398-4.555-7.768-4.502-12.27V48.314c0-4.864,1.942-9.533,5.385-12.976c25.316-23.18,58.542-35.812,92.861-35.309
	c35.785-0.759,70.37,12.914,95.951,37.957c22.156,21.574,52.054,33.34,82.975,32.66c21.265,0.194,42.22-5.129,60.819-15.447
	c2.322-1.395,4.97-2.154,7.68-2.207c9.339,0.433,16.595,8.306,16.242,17.654v200.817c0.168,5.967-2.692,11.608-7.591,15.006
	C419.686,301.468,392.834,309.306,365.452,308.98z"/>
<path style="fill:#CBB292;" d="M79.453,0.03L79.453,0.03c9.754,0,17.654,7.9,17.654,17.654v476.665
	c0,9.754-7.9,17.654-17.654,17.654l0,0c-9.754,0-17.654-7.9-17.654-17.654V17.684C61.799,7.939,69.699,0.03,79.453,0.03z"/>
<g>
</g>
<g>
</g>
<g>
</g>
<g>
</g>
<g>
</g>
<g>
</g>
<g>
</g>
<g>
</g>
<g>
</g>
<g>
</g>
<g>
</g>
<g>
</g>
<g>
</g>
<g>
</g>
<g>
</g>
</svg>
